<?xml version="1.0" encoding="UTF-8" standalone="no"?>
<svg
   xmlns:dc="http://purl.org/dc/elements/1.1/"
   xmlns:cc="http://creativecommons.org/ns#"
   xmlns:rdf="http://www.w3.org/1999/02/22-rdf-syntax-ns#"
   xmlns:svg="http://www.w3.org/2000/svg"
   xmlns="http://www.w3.org/2000/svg"
   xmlns:sodipodi="http://sodipodi.sourceforge.net/DTD/sodipodi-0.dtd"
   xmlns:inkscape="http://www.inkscape.org/namespaces/inkscape"
   inkscape:export-ydpi="96"
   inkscape:export-xdpi="96"
   inkscape:export-filename="C:\ae\adaept.com\moonwalk\public\assets\icon\favicon.png"
   inkscape:version="1.0 (4035a4fb49, 2020-05-01)"
   sodipodi:docname="ae-adaept-64x64-final.svg"
   version="1.1"
   height="64"
   width="64"
   viewBox="0 0 63.999998 64"
   id="ae">
  <defs
     id="defs8" />
  <sodipodi:namedview
     inkscape:snap-global="true"
     inkscape:snap-bbox="false"
     inkscape:snap-others="false"
     inkscape:snap-nodes="true"
     showborder="true"
     fit-margin-bottom="64"
     fit-margin-right="64"
     fit-margin-left="0"
     fit-margin-top="0"
     inkscape:document-rotation="0"
     inkscape:current-layer="ae"
     inkscape:window-maximized="1"
     inkscape:window-y="-8"
     inkscape:window-x="-8"
     inkscape:cy="36.54022"
     inkscape:cx="31.638477"
     inkscape:zoom="10.429825"
     showgrid="true"
     id="namedview6"
     inkscape:window-height="837"
     inkscape:window-width="1600"
     inkscape:pageshadow="2"
     inkscape:pageopacity="0"
     guidetolerance="10"
     gridtolerance="1"
     objecttolerance="10"
     borderopacity="1"
     bordercolor="#666666"
     pagecolor="#ffffff">
    <inkscape:grid
       empspacing="4"
       originy="0"
       originx="0"
       dotted="false"
       spacingy="1"
       spacingx="1"
       id="grid835"
       type="xygrid" />
  </sodipodi:namedview>
  <metadata
     id="adaept">
    <rdf:RDF>
      <cc:Work
         rdf:about="">
        <dc:format>image/svg+xml</dc:format>
        <dc:type
           rdf:resource="http://purl.org/dc/dcmitype/StillImage" />
        <dc:title></dc:title>
      </cc:Work>
    </rdf:RDF>
  </metadata>
  <g
     transform="matrix(0.05999758,0,0,0.06034765,1.2473156,1.1201266)"
     id="g833">
    <path
       d="m 355.79883,257.03516 c -2.70363,-0.008 -5.45149,10e-4 -8.24805,0.0254 l -0.0117,-0.01 c -168.96381,0.5 -312.806894,129.0226 -334.617205,255.97678 l -0.152344,0.002 c 3.25,246.92 183.469689,487.27976 486.429689,497.33976 247.05,8.21 514.12028,-197.28883 512.49028,-508.12883 l -0.1387,0.0605 c -45.90002,290.79 -330.76994,439.96836 -510.41994,439.31836 -239.16,-0.53 -423.441407,-187.68906 -423.441407,-429.03906 l -0.195312,0.002 C 120.12855,386.24152 256.92346,295.2428 394.58984,319.65039 c 68.74,16.72 69.27922,67.60875 70.69922,123.71875 -41,0.78 -83.3182,-4.19961 -121.1582,-0.84961 -106.79,16.39 -177.40078,52.34055 -179.30078,163.06055 2.7,85.48 66.26984,150.35969 143.58984,151.42969 87.05,-0.45 147.84992,-38.58907 197.91992,-97.03907 l 18,-320.30078 c -44.78531,-66.2625 -84.72856,-82.39996 -168.54101,-82.63476 z m 40.40039,246.77734 c 21.85659,-0.005 43.56797,0.99023 64.08984,0.31836 0.51058,38.15605 4.08218,76.10198 16.21094,109.97852 -57.45,45.66999 -149.05937,97.84039 -211.60938,46.15039 -28.65999,-31.41 -31.52039,-84.38032 -3.90039,-113.57032 38.34188,-38.02562 87.12449,-42.86648 135.20899,-42.87695 z"
       id="a"
       style="fill:#ed2939;fill-opacity:1" />
    <path
       d="m 506.43945,14.580078 c -228.14,0.12 -493.518825,184.949142 -493.548825,498.619142 65,-293.99 250.038825,-416.349376 487.298825,-432.859376 256.71,8.49 441.18992,236.440546 450.16993,423.810546 l 0.0527,-0.002 c -35.52735,128.38859 -142.54766,183.12467 -243.87305,188.23242 -97.97,-3.68 -163.60898,-64.87039 -159.70898,-190.90039 l 322.95898,1.69922 c 0.36,-65.32 -12.18976,-141.54961 -48.75976,-188.59961 -31.54,-38.45 -77.27899,-57.90039 -137.70899,-57.90039 -64.1,2.75 -116.33,32.40031 -159,80.07031 l -18.88086,322.32031 c 55.16,56.95 133.73039,87.96969 202.65039,88.42969 157.83,0.01 276.71094,-114.80945 303.46099,-245.18945 l -15.40825,0.42187 15.54695,-0.48242 C 1008.2795,230.43 781.79945,14.440078 506.43945,14.580078 Z M 685.17969,317 c 78.12,3.66 110.34093,54.89078 118.46093,123.55078 H 552.31055 c 11.7,-73 64.42914,-122.51078 132.86914,-123.55078 z"
       id="e"
       style="fill:#009e60;fill-opacity:1" />
  </g>
</svg>
